<?xml version="1.0" ?><svg id="Layer_1" style="enable-background:new 9 9 32 32;" version="1.1" viewBox="0 0 32 32" xml:space="preserve" xmlns="http://www.w3.org/2000/svg" xmlns:xlink="http://www.w3.org/1999/xlink"><g><path d="M22.48,7.21L22.48,7.21c-0.04-0.02-0.06-0.04-0.1-0.06c-0.04-0.04-0.08-0.06-0.13-0.08c-1.83-1.08-3.96-1.7-6.23-1.71   c0.1,0.37,0.16,0.74,0.2,1.13c0.01,0.24,0.03,0.41,0.03,0.59c0,0.17-0.01,0.33-0.01,0.49c-0.24,4.04-3.44,6.76-5.36,7.76   c-0.37,0.18-0.77,0.29-1.19,0.29s-0.82-0.1-1.18-0.29c-0.13-0.07-0.96-0.5-1.92-1.33c-0.49-0.41-1.01-0.93-1.5-1.54   c-0.05-0.07-0.1-0.13-0.15-0.2c-0.83,1.67-1.26,3.51-1.26,5.41c0,0.24,0.01,0.49,0.02,0.73v0.04c0.01,0.13,0.02,0.27,0.04,0.39   c0,0.04,0.01,0.07,0.01,0.1c0.5,4.96,3.96,9.06,8.59,10.51c0.04,0.01,0.09,0.03,0.14,0.04C13.6,29.82,14.78,30,16,30   c4.74,0,8.86-2.69,10.91-6.62c0.01-0.01,0.01-0.01,0.01-0.01c0.04-0.09,0.1-0.18,0.14-0.28c0-0.01,0-0.01,0.01-0.02   c0.8-1.63,1.25-3.46,1.25-5.39C28.32,13.26,25.98,9.38,22.48,7.21z M6.65,21.52c0.15,0.02,0.3,0.04,0.46,0.04   c1.27,0,2.71-0.69,3.59-2.68c0.55-1.25,0.87-1.27,2.23-1.37c1.33-0.1,3.14-0.24,5.67-1.74c2.98-1.75,4.02-3.84,4.31-5.45   c1.96,1.84,3.19,4.46,3.19,7.36c0,1.22-0.22,2.4-0.62,3.49c-2.03-0.94-5.12-1.44-7.06,1.3c-0.91,1.27-2.04,1.7-3.24,2.15   c-1.14,0.43-2.51,0.94-3.17,2.34C9.6,25.93,7.65,23.97,6.65,21.52z"/><path d="M6.24,11.55c0.32,0.41,0.67,0.77,1.01,1.08c0.11,0.1,0.21,0.19,0.32,0.29c0.29,0.24,0.57,0.45,0.8,0.61   c0.07,0.04,0.13,0.09,0.18,0.13c0.08,0.05,0.15,0.1,0.22,0.15c0.06,0.03,0.11,0.06,0.15,0.09c0.07,0.04,0.12,0.07,0.15,0.09   c0.03,0.01,0.05,0.03,0.07,0.04s0.02,0.01,0.03,0.01c0.07,0.03,0.13,0.06,0.2,0.07c0.01,0.01,0.03,0.01,0.04,0.01   c0.09,0.02,0.18,0.04,0.27,0.04c0.09,0,0.18-0.01,0.27-0.04c0.01,0,0.03-0.01,0.04-0.01c0.07-0.01,0.13-0.04,0.2-0.07   c0.01-0.01,0.04-0.02,0.08-0.04c0.04-0.02,0.07-0.04,0.13-0.07c0.04-0.02,0.1-0.05,0.15-0.09c0.05-0.03,0.11-0.07,0.17-0.11   c0.13-0.08,0.27-0.18,0.43-0.29c0.21-0.15,0.43-0.33,0.68-0.54c0.03-0.02,0.06-0.05,0.09-0.07c0.09-0.08,0.18-0.17,0.28-0.26   c0.07-0.06,0.13-0.13,0.2-0.19c0.15-0.15,0.32-0.32,0.46-0.49l0.13-0.15c0.13-0.15,0.25-0.31,0.37-0.47   c0.05-0.07,0.1-0.13,0.15-0.21c0.08-0.12,0.16-0.24,0.24-0.37c0.07-0.12,0.15-0.25,0.21-0.38c0.07-0.13,0.13-0.25,0.18-0.38   c0.02-0.04,0.04-0.08,0.06-0.13c0.04-0.1,0.09-0.21,0.13-0.32c0.01-0.01,0.01-0.03,0.02-0.05c0.04-0.1,0.07-0.19,0.1-0.29   c0.02-0.09,0.05-0.18,0.07-0.27c0.01-0.01,0.01-0.03,0.01-0.04c0.03-0.13,0.07-0.27,0.1-0.41c0.01-0.12,0.04-0.23,0.05-0.35   c0.02-0.13,0.04-0.25,0.04-0.38c0.02-0.18,0.03-0.38,0.03-0.57c0-0.15-0.01-0.28-0.02-0.46c-0.04-0.41-0.12-0.79-0.24-1.16   C13.84,3.43,11.94,2,9.69,2C6.89,2,4.6,4.28,4.6,7.08c0,1.33,0.38,2.59,1.16,3.77C5.9,11.09,6.06,11.32,6.24,11.55z M11.36,7.18   c0,0.51-0.24,0.97-0.6,1.27c-0.29,0.24-0.66,0.38-1.05,0.38c-0.41,0-0.8-0.15-1.11-0.41c0-0.01-0.01-0.01-0.01-0.01   C8.25,8.12,8.01,7.67,8.01,7.18c0-0.91,0.69-1.64,1.6-1.64h0.1C10.62,5.54,11.36,6.27,11.36,7.18z"/></g></svg>